<svg xmlns="http://www.w3.org/2000/svg" xml:space="preserve" viewBox="450 395 230 235">
  <rect width="45" height="45" fill="#ef4444" transform="matrix(.56 -.56 .56 .56 540 429.48)" />
  <rect width="45" height="45" fill="#ef4444" transform="matrix(.56 -.56 .56 .56 583 471.85)" />
  <rect width="45" height="45" fill="#ef4444" transform="matrix(.56 -.56 .56 .56 498 472.48)" />
  <rect width="45" height="45" fill="#ef4444" transform="matrix(.56 -.56 .56 .56 540 512.85)" />
  <rect width="45" height="45" fill="#ef4444" transform="matrix(.56 -.56 .56 .56 455 513.85)" />
  <rect width="45" height="45" fill="#ef4444" transform="matrix(.56 -.56 .56 .56 626 513.85)" />
  <rect width="45" height="45" fill="#ef4444" transform="matrix(.56 -.56 .56 .56 498 555.48)" />
  <rect width="45" height="45" fill="#ef4444" transform="matrix(.56 -.56 .56 .56 584 554.85)" />
  <rect width="45" height="45" fill="#ef4444" transform="matrix(.56 -.56 .56 .56 540 594.85)" />
</svg>
